# xmcd
# 
# Track frame offsets:
#     150
#     10035
#     23625
#     33630
#     43180
#     55490
#     69612
#     78327
#     90802
#     99315
#     113425
#     121740
#     137560
#     149385
#     157807
#     173435
#     185295
#     194602
#     203647
#     217910
#     229555
#     240817
#     257282
#     268935
# 
# Disc length: 3814
# 
# Revision: 8
# Processed by: cddbd v1.5.2PL0 Copyright (c) Steve Scherf et al.
# Submitted via: fre:ac v1.0.31
# 
DISCID=270ee418
DTITLE=The Byrds - The Byrds [Box Set] (2 Of 4)
DYEAR=1990
DGENRE=Rock/Pop
TTITLE0=Mr. Spaceman
TTITLE1=John Riley
TTITLE2=Roll Over Beethoven
TTITLE3=So You Want To Be A Rock 'N' Roll Star
TTITLE4=Have You Seen Her Face
TTITLE5=My Back Pages
TTITLE6=Time Between
TTITLE7=It Happens Each Day
TTITLE8=Renaissance Fair
TTITLE9=Everybody's Been Burned
TTITLE10=The Girl With No Name
TTITLE11=Triad
TTITLE12=Lady Friend
TTITLE13=Old John Robertson
TTITLE14=Goin' Back
TTITLE15=Draft Morning
TTITLE16=Wasn't Born To Follow
TTITLE17=Dolphin's Smile
TTITLE18=Reputation
TTITLE19=You Ain't Going Nowhere
TTITLE20=The Christian Life
TTITLE21=I'm A Pilgrim
TTITLE22=Pretty Boy Floyd
TTITLE23=You Don't Miss Your Water
EXTD=BYRDS Boxset (1965 - 1990]\n4 CD-Set\nCD 1: We Have Ignition\nCD 2: Cruising Altitude\nCD 3: Full Throttle\nCD 4: Final Approach\nLabel: Columbia - Legacy\n46773
EXTT0=
EXTT1=
EXTT2=
EXTT3=
EXTT4=
EXTT5=
EXTT6=
EXTT7=
EXTT8=
EXTT9=
EXTT10=
EXTT11=
EXTT12=
EXTT13=
EXTT14=
EXTT15=
EXTT16=
EXTT17=
EXTT18=
EXTT19=
EXTT20=
EXTT21=
EXTT22=
EXTT23=
PLAYORDER=
